<svg viewBox="0 0 512 512" xmlns="http://www.w3.org/2000/svg" fill-rule="evenodd" clip-rule="evenodd" stroke-linejoin="round" stroke-miterlimit="2"><g transform="scale(32)"><clipPath id="prefix__a"><path d="M0 0h16v16H0z"/></clipPath><g clip-path="url(#prefix__a)"><path d="M6.989 4.036L.062 17.818a.58.58 0 00.257.774l3.733 1.876a.58.58 0 00.775-.256L11.753 6.43a.58.58 0 00-.257-.775L7.763 3.78a.576.576 0 00-.774.257v-.001z" fill="url(#prefix___Linear2)" fill-rule="nonzero" transform="scale(.66667)"/><path d="M19.245 3.832h4.179c.318 0 .577.26.577.577v15.425a.58.58 0 01-.577.578h-4.179a.58.58 0 01-.577-.578V4.41c0-.318.259-.577.577-.577v-.001z" fill="url(#prefix___Linear3)" fill-rule="nonzero" transform="scale(.66667)"/><path d="M12.815 4.085L9.85 19.108a.579.579 0 00.453.677l4.095.826c.314.063.62-.14.681-.454l2.964-15.022a.58.58 0 00-.453-.677l-4.096-.827a.579.579 0 00-.68.454h.001z" fill="url(#prefix___Linear4)" fill-rule="nonzero" transform="scale(.66667)"/></g></g><defs><linearGradient id="prefix___Linear2" x1="0" y1="0" x2="1" y2="0" gradientUnits="userSpaceOnUse" gradientTransform="matrix(10.5 -19.5 19.5 10.5 1.5 19.5)"><stop offset="0" stop-color="#f0f"/><stop offset=".17" stop-color="#e90cf9"/><stop offset=".54" stop-color="#c023ed"/><stop offset=".73" stop-color="#b02de9"/><stop offset="1" stop-color="#b02de9"/></linearGradient><linearGradient id="prefix___Linear3" x1="0" y1="0" x2="1" y2="0" gradientUnits="userSpaceOnUse" gradientTransform="matrix(24 -24 24 24 0 24)"><stop offset="0" stop-color="#b02de9"/><stop offset=".02" stop-color="#b02de9"/><stop offset=".8" stop-color="#6d00cc"/><stop offset="1" stop-color="#6d00cc"/></linearGradient><linearGradient id="prefix___Linear4" x1="0" y1="0" x2="1" y2="0" gradientUnits="userSpaceOnUse" gradientTransform="matrix(24 -24 24 24 0 24)"><stop offset="0" stop-color="#f0f"/><stop offset=".02" stop-color="#f0f"/><stop offset=".09" stop-color="#e90cf9"/><stop offset=".23" stop-color="#c023ed"/><stop offset=".3" stop-color="#b02de9"/><stop offset=".42" stop-color="#a42be3"/><stop offset=".63" stop-color="#8626d5"/><stop offset=".85" stop-color="#6021c3"/><stop offset="1" stop-color="#6021c3"/></linearGradient></defs></svg>