<?xml version="1.0" encoding="UTF-8" standalone="no"?>
<!-- Created with Inkscape (http://www.inkscape.org/) -->

<svg
   xmlns:dc="http://purl.org/dc/elements/1.1/"
   xmlns:cc="http://creativecommons.org/ns#"
   xmlns:rdf="http://www.w3.org/1999/02/22-rdf-syntax-ns#"
   xmlns:svg="http://www.w3.org/2000/svg"
   xmlns="http://www.w3.org/2000/svg"
   xmlns:sodipodi="http://sodipodi.sourceforge.net/DTD/sodipodi-0.dtd"
   xmlns:inkscape="http://www.inkscape.org/namespaces/inkscape"
   version="1.0"
   width="1076.0552"
   height="220.28696"
   id="svg2"
   xml:space="preserve"
   inkscape:version="0.91 r13725"
   sodipodi:docname="Carrefour Market logo 2015.svg"><metadata
     id="metadata31"><rdf:RDF><cc:Work
         rdf:about=""><dc:format>image/svg+xml</dc:format><dc:type
           rdf:resource="http://purl.org/dc/dcmitype/StillImage" /><dc:title></dc:title></cc:Work></rdf:RDF></metadata><sodipodi:namedview
     pagecolor="#ffffff"
     bordercolor="#666666"
     borderopacity="1"
     objecttolerance="10"
     gridtolerance="10"
     guidetolerance="10"
     inkscape:pageopacity="0"
     inkscape:pageshadow="2"
     inkscape:window-width="1366"
     inkscape:window-height="705"
     id="namedview29"
     showgrid="false"
     inkscape:zoom="0.5503865"
     inkscape:cx="322.63691"
     inkscape:cy="-0.32621577"
     inkscape:window-x="-8"
     inkscape:window-y="-8"
     inkscape:window-maximized="1"
     inkscape:current-layer="svg2"
     fit-margin-top="0"
     fit-margin-left="0"
     fit-margin-right="0"
     fit-margin-bottom="0" /><defs
     id="defs5"><clipPath
       id="clipPath19"><path
         d="m 0,0 595.276,0 0,841.89 L 0,841.89 0,0 Z"
         id="path21"
         inkscape:connector-curvature="0" /></clipPath><clipPath
       id="clipPath35"><path
         d="m -1,55.567 611.449,0 0,-70.7402 -611.449,0 0,70.7402 z"
         id="path37"
         inkscape:connector-curvature="0" /></clipPath><clipPath
       id="clipPath213"><path
         d="m 0,0 595.276,0 0,841.89 L 0,841.89 0,0 Z"
         id="path215"
         inkscape:connector-curvature="0" /></clipPath><clipPath
       id="clipPath277"><path
         d="m 0,0 595.276,0 0,841.89 L 0,841.89 0,0 Z"
         id="path279"
         inkscape:connector-curvature="0" /></clipPath><clipPath
       id="clipPath285"><path
         d="m 94.0675,528.577 87.2655,0 0,-87.265 -87.2655,0 0,87.265 z"
         id="path287"
         inkscape:connector-curvature="0" /></clipPath><clipPath
       id="clipPath299"><path
         d="m 35.433,419.57 86.981,0 0,86.981 -86.981,0 0,-86.981 z"
         id="path301"
         inkscape:connector-curvature="0" /></clipPath><clipPath
       id="clipPath313"><path
         d="m 368.291,419.528 86.98,0 0,86.98 -86.98,0 0,-86.98 z"
         id="path315"
         inkscape:connector-curvature="0" /></clipPath><clipPath
       id="clipPath325"><path
         d="m 479.248,741.04 73.507,0 0,59.038 -73.507,0 0,-59.038 z"
         id="path327"
         inkscape:connector-curvature="0" /></clipPath><inkscape:perspective
       id="perspective2438"
       inkscape:persp3d-origin="372.04724 : 350.78739 : 1"
       inkscape:vp_z="744.09448 : 526.18109 : 1"
       inkscape:vp_y="0 : 1000 : 0"
       inkscape:vp_x="0 : 526.18109 : 1"
       sodipodi:type="inkscape:persp3d" /></defs><g
     id="g3030"
     transform="translate(393.54487,-262.84786)"><g
       transform="matrix(1.9825307,0,0,1.9825307,166.45118,131.02706)"
       id="g3099"><path
         d="m -232.90105,71.177388 -45.81319,44.322482 c -2.28881,1.94391 -3.75102,4.22417 -3.75102,7.48779 0,3.25221 1.46221,5.54102 3.75102,7.49634 l 45.81319,44.30537 c 0.29359,0.29929 0.57862,0.419 0.81805,0.419 0.4361,0 0.73538,-0.39334 0.72113,-0.85795 -0.0114,-0.27363 -0.13112,-0.58716 -0.4019,-0.85794 -10.75426,-13.3623 -18.57838,-28.68562 -18.57838,-50.34521 0,-21.67668 7.82412,-37.302135 18.57838,-50.672986 0.27078,-0.26793 0.3905,-0.572915 0.4019,-0.857947 0.0143,-0.470303 -0.28503,-0.855096 -0.72113,-0.855096 -0.23943,0 -0.52446,0.119714 -0.81805,0.416147"
         id="path335"
         style="fill:#f48569;fill-opacity:1;fill-rule:nonzero;stroke:none"
         inkscape:connector-curvature="0" /><path
         d="m -197.44848,66.491177 c -17.93706,0 -24.94885,25.422005 -24.94885,55.723753 0,30.31031 7.01179,55.39027 24.94885,55.39027 10.76566,0 19.94084,-6.3049 19.97219,-11.48393 0.006,-1.13728 -0.43039,-2.2204 -1.3824,-3.17241 -5.10492,-4.9282 -7.10015,-9.85356 -7.1144,-14.2003 -0.0342,-8.30298 7.16856,-14.47962 13.8041,-14.47962 9.12673,0 14.50813,7.16855 14.50813,16.4549 0,8.80178 -3.75102,16.13281 -7.82698,22.00162 -0.16247,0.23942 -0.23373,0.50735 -0.23373,0.74108 0.003,0.46175 0.27364,0.83799 0.67838,0.83799 0.24798,0 0.53586,-0.13111 0.85225,-0.4475 l 45.82459,-44.30537 c 2.28881,-1.95532 3.75102,-4.24698 3.75102,-7.49634 0,-3.26362 -1.46221,-5.54673 -3.75102,-7.48779 l -45.82459,-44.322481 c -0.31639,-0.313536 -0.60427,-0.447501 -0.85225,-0.447501 -0.41045,0 -0.67553,0.381943 -0.67838,0.843695 0,0.233726 0.0713,0.498806 0.23373,0.743934 4.07596,5.860258 7.82698,13.199832 7.82698,21.993069 0,9.280644 -5.3814,16.460604 -14.50813,16.460604 -6.63554,0 -13.8383,-6.17665 -13.8041,-14.479631 0.0143,-4.346738 2.00948,-9.277792 7.1144,-14.203145 0.95201,-0.952007 1.38811,-2.029428 1.3824,-3.166706 -0.0314,-5.190433 -9.20653,-11.498191 -19.97219,-11.498191"
         id="path339"
         style="fill:#ee272e;fill-opacity:1;fill-rule:nonzero;stroke:none"
         inkscape:connector-curvature="0" /></g><path
       sodipodi:nodetypes="csssssssssssssssssssssccsssssssssssssssssssssssssssssccssscccsssssssssssscccsccssscccssssscccssscccsssssssssssssssssssccssssssssssscs"
       id="path2416"
       d="m 463.96934,451.57322 c -7.745,-4.09591 -17.56061,-15.34495 -27.30798,-31.29588 -14.71621,-24.08199 -19.84532,-31.57532 -20.68408,-30.21822 -0.44455,0.71934 -2.56235,7.54662 -4.70624,15.17172 -2.14389,7.62511 -4.92779,15.43536 -6.18639,17.35625 -3.14704,4.80303 -14.17869,9.89234 -20.19022,9.3146 -4.48345,-0.43082 -4.94105,-0.94357 -5.36093,-6.00597 -0.25926,-3.12602 2.14774,-15.42359 5.53028,-28.2549 7.46676,-28.32438 29.32534,-104.56955 31.56932,-110.11733 3.44432,-8.51545 17.28245,-16.00066 25.68297,-13.89226 3.28831,0.8253 3.85011,1.77943 3.83639,6.51521 -0.0105,3.05155 -1.04066,8.89427 -2.2929,12.98377 -8.98891,29.35581 -21.47572,74.11614 -20.85058,74.74124 1.92483,1.92487 11.39768,-4.15305 20.23687,-12.98425 7.49363,-7.48689 10.51795,-11.84884 13.21438,-19.05897 3.8093,-10.18605 6.14076,-12.21242 14.05092,-12.21242 11.40714,0 16.34869,4.58308 14.05534,13.03582 -1.73005,6.37648 -17.57052,23.04858 -30.75166,32.36619 -5.7499,4.06454 -10.77945,8.15915 -11.17679,9.09915 -1.05189,2.48837 23.38667,38.04762 33.79697,49.17622 4.89317,5.23087 11.12668,10.44239 13.8523,11.58122 4.88918,2.04282 5.8413,4.13221 4.03182,8.84766 -2.57715,6.71591 -20.60666,9.00365 -30.34979,3.85115 z M 123.50458,429.67254 c -3.49187,-1.82645 -5.86542,-4.55679 -7.31818,-8.41804 -1.90275,-5.05732 -1.87108,-6.87724 0.2757,-15.82199 1.33408,-5.55895 5.88061,-19.38261 10.10338,-30.71921 8.56868,-23.00417 10.66935,-33.25229 6.81612,-33.25229 -3.63908,0 -21.31536,17.24027 -30.93452,30.1714 -8.126425,10.9246 -12.664915,19.28777 -23.405652,43.13015 -4.056961,9.00589 -5.284264,10.42473 -11.331113,13.09957 -8.57775,3.79434 -17.072068,3.33557 -18.665646,-1.00794 -0.785188,-2.14008 2.283445,-13.56369 9.986626,-37.17753 11.808622,-36.19924 14.447335,-48.21565 10.587416,-48.21565 -3.431039,0 -12.973323,7.51856 -22.155424,17.4566 -10.658201,11.53577 -22.139663,28.92023 -29.72095,45.0016 -9.1282712,19.3631 -9.2647882,19.59375 -13.4447312,22.69733 -2.155849,1.6007 -7.002016,3.25794 -10.769435,3.68252 -8.9993428,1.01434 -11.9316088,-1.28844 -10.7794018,-8.46565 1.530822,-9.536 23.7311568,-85.49657 26.0508868,-89.13527 2.6598292,-4.17249 15.4975722,-10.53405 21.3000912,-10.55492 6.761403,-0.0249 7.624666,4.01335 3.972046,18.57702 -1.757753,7.00805 -2.904308,13.03338 -2.547997,13.38963 0.356161,0.35627 6.299657,-4.85641 13.207687,-11.58373 14.347102,-13.97161 23.791382,-19.27951 35.610116,-20.01366 13.857866,-0.86079 21.471961,5.91752 21.275521,18.94018 -0.0625,4.09411 0.3123,7.43882 0.83113,7.43267 0.51901,-0.006 3.95494,-3.09069 7.63553,-6.85452 16.65584,-17.03274 35.3246,-24.01273 47.4516,-17.7416 10.28703,5.31962 9.73308,15.21513 -3.02223,53.99761 -9.64665,29.33021 -10.33162,35.04649 -4.27763,35.69962 13.55195,1.46196 16.46561,3.50673 13.33439,9.35743 -2.60808,4.87337 -10.26531,7.67106 -22.90671,8.36941 -9.61886,0.53134 -13.01305,0.12775 -17.15862,-2.04074 z m 60.06459,0.46843 c -14.08017,-6.37773 -17.38686,-26.00955 -8.05026,-47.79113 13.90558,-32.44025 52.98653,-57.29678 93.98005,-59.77374 18.1027,-1.09385 23.50196,0.63928 23.49035,7.54027 -0.006,2.55898 -1.22872,6.66025 -2.72088,9.11399 l -2.71306,4.46128 -22.18807,0 c -21.2998,0 -22.55847,0.17115 -31.44133,4.2742 -18.48163,8.53681 -31.50689,27.55591 -32.81333,47.91307 -0.63224,9.85131 -0.42675,10.85049 2.55983,12.44881 6.38838,3.41901 12.03153,0.42308 26.13732,-13.87628 7.36908,-7.4703 17.55139,-19.6852 22.62737,-27.14433 10.0384,-14.75145 15.66672,-18.8363 26.23715,-19.04213 8.70065,-0.1694 9.71642,2.63676 5.7207,15.80384 -1.81125,5.96858 -5.4047,18.68895 -7.98548,28.26736 -5.33519,19.80152 -4.878,21.99274 4.58866,21.99274 7.46261,0 11.22123,2.91962 10.0037,7.77053 -1.22675,4.88782 -9.17334,8.66879 -20.34938,9.68225 -11.41063,1.03456 -18.8559,-0.52111 -23.17811,-4.84336 -3.0752,-3.07517 -3.55159,-4.96378 -3.55159,-14.08015 l 0,-10.52868 -10.29596,10.29609 c -12.69358,12.69343 -23.79109,18.51931 -36.47386,19.1476 -5.45115,0.27009 -10.80429,-0.37311 -13.58382,-1.63223 z m 320.58671,0.64379 c -14.21363,-4.32362 -20.84221,-12.84531 -21.94136,-28.20782 -2.57796,-36.03047 34.00423,-77.79545 70.17485,-80.11676 13.1968,-0.84692 22.95119,2.7613 27.446,10.15246 15.44942,25.40449 -13.5104,52.3447 -57.82468,53.79209 l -12.64036,0.41283 0.0973,7.12736 c 0.12793,9.36831 4.43383,13.82751 15.61657,16.17314 7.20504,1.51134 9.44601,1.33718 18.60706,-1.44531 5.72851,-1.74006 14.59274,-5.86352 19.69827,-9.16339 9.80244,-6.33564 14.66164,-7.46582 16.09045,-3.74244 2.56191,6.67621 -9.79914,19.9929 -25.52496,27.49813 -15.96942,7.62139 -38.35318,11.00144 -49.7993,7.51971 z m 36.98198,-64.2889 c 11.03412,-5.54314 16.56328,-12.17543 16.56328,-19.86783 0,-6.14127 -3.28935,-8.81996 -10.47862,-8.53327 -7.25718,0.2894 -13.23022,3.38912 -20.10257,10.43231 -5.81024,5.95468 -13.99485,19.09796 -14.01789,22.51073 -0.0257,3.79757 16.89045,1.05707 28.0358,-4.54194 z m 63.40695,63.59262 c -12.90303,-5.6956 -13.28236,-13.92774 -2.41012,-52.30642 4.18822,-14.78438 7.61497,-28.00099 7.61497,-29.37022 0,-2.02223 -1.51527,-2.48954 -8.07282,-2.48954 -13.04791,0 -17.04112,-7.83105 -8.39969,-16.47248 3.51988,-3.51991 5.62347,-4.34693 11.05645,-4.34693 12.29823,0 13.26663,-0.95694 17.95442,-17.74199 2.31433,-8.28659 5.47414,-16.67634 7.02186,-18.64393 4.00111,-5.0866 18.67649,-10.38657 23.135,-8.35514 4.514,2.0567 4.36315,5.43831 -1.05639,23.68118 -2.45371,8.25951 -4.46129,16.04228 -4.46129,17.29504 0,1.89998 2.57206,2.27776 15.50833,2.27776 12.1157,0 16.01957,0.51121 17.8452,2.33685 2.73247,2.73248 2.88803,4.26433 0.8245,8.12011 -1.86885,3.49195 -8.95713,5.41506 -24.8591,6.74443 -6.73423,0.56297 -13.21089,1.7746 -14.39262,2.69257 -1.18167,0.91795 -5.47086,14.04908 -9.53142,29.18035 -9.58176,35.70514 -9.28657,34.21565 -7.45894,37.63063 1.46389,2.73522 2.61786,2.87813 16.10318,1.99448 12.02628,-0.78816 14.85061,-0.56123 16.41065,1.31848 2.67594,3.22431 -0.18951,8.84975 -6.05224,11.88149 -11.35057,5.86957 -37.95169,8.47021 -46.77993,4.57328 z m -302.63669,-2.39736 c -1.83598,-3.43057 -0.85955,-7.98379 10.6786,-49.79618 10.33808,-37.46334 12.76284,-44.50373 16.52352,-47.97679 4.0327,-3.7243 13.58072,-7.78946 18.29538,-7.78946 4.07548,0 7.14379,4.74892 5.80128,8.97877 -1.22873,3.87139 -0.77322,3.78178 12.29268,-2.41853 13.23763,-6.28181 25.40601,-8.20272 28.48213,-4.49624 2.61028,3.1452 1.46258,15.76925 -1.9002,20.90154 -2.31956,3.54007 -3.29081,3.80226 -14.08397,3.80226 -14.34079,0 -26.1657,3.2874 -29.35982,8.16221 -1.29124,1.97071 -5.6346,16.49921 -9.65191,32.28558 -4.0173,15.78633 -8.5273,30.37538 -10.02224,32.42014 -6.14565,8.40599 -23.67366,12.24569 -27.05545,5.9267 z"
       style="fill:#ee272e;fill-opacity:1"
       inkscape:connector-curvature="0" /></g></svg>