<svg width="431" height="80" viewBox="0 0 431 80" fill="none" xmlns="http://www.w3.org/2000/svg">
<path fill-rule="evenodd" clip-rule="evenodd" d="M5.14997 2.03071e-05H19.0224L12.5182 52.3534H12.3693C4.8209 52.3534 -0.863499 48.0387 0.108367 40.2707L5.14997 2.03071e-05ZM55.0209 52.3534H41.1474L44.989 22.2094C44.3104 19.308 39.4313 18.3387 36.8792 20.4174L36.5677 22.552L36.5614 22.5427L32.5786 52.3534H18.7052L23.0844 17.4507C26.8109 13.6547 32.4198 13.3094 37.6422 13.4267L37.7161 13.372C40.4865 13.372 43.2568 13.372 46.0276 13.372L46.1084 13.424L46.1166 13.3574H46.2661C53.8136 13.3574 59.5385 17.672 58.5261 25.44L55.0209 52.3534ZM75.898 44.4747L79.0166 20.96L82.8494 20.9547C85.3698 20.9507 87.0281 18.476 87.3428 15.4774L87.349 15.4187L79.7494 15.4387L81.7969 2.03071e-05H81.648C74.0994 2.03071e-05 67.3068 4.3147 66.2833 12.084C65.1401 20.7667 63.9964 29.4494 62.8526 38.132C61.3876 47.348 65.8552 51.6867 74.7974 52.348L74.7994 52.3534H74.8526H83.912C83.912 51.4334 83.912 50.5147 83.912 49.596C83.7865 47.9267 83.027 47.5867 81.4844 47.424C77.8032 47.4534 76.0089 46.756 75.898 44.4747ZM102.089 32.6067C102.834 28.212 103.58 23.8187 104.325 19.424C108.366 18.672 112.5 18.3747 112.894 22.036C113.214 25.0027 112.437 28.072 110.97 30.7414C109.806 32.86 106.022 32.8294 102.089 32.6067ZM88.2698 38.9094L91.4844 15.9467C93.351 14.1867 96.7094 13.2574 101.558 13.1574C106.237 13.1574 110.917 13.1574 115.597 13.1574C121.32 13.672 126.017 16.748 125.778 23.5654C125.477 29.2667 121.7 38.9467 110.346 38.8027C107.416 38.8027 103.928 38.8027 100.999 38.8027C100.764 40.4427 100.497 42.22 100.492 43.752C100.484 45.992 102.445 47.708 104.47 47.708H116.564C117.532 47.7 118.292 48.1067 118.597 49.4254V51.904H98.5562C90.474 51.904 87.2048 46.5134 88.2698 38.9094ZM142.62 32.9387L144.789 19.3574C148.83 18.6054 152.501 18.3747 152.896 22.036C153.214 25.0027 152.238 28.4027 150.772 31.072C149.608 33.1907 146.552 33.16 142.62 32.9387ZM141.596 38.8027H145.765L170.394 72.7614C174.349 78.9134 177.57 78.7734 182.153 78.7387L157.842 37.1094C164.714 34.732 165.557 27.7574 165.778 23.5654C166.017 16.748 161.32 13.672 155.597 13.1574C150.918 13.1574 146.238 13.1574 141.558 13.1574C136.709 13.2574 133.352 14.1867 131.485 15.9467L126.48 51.6347H140.133L141.596 38.8027Z" fill="#231F20"/>
<path fill-rule="evenodd" clip-rule="evenodd" d="M348.512 52.3534H362.385L366.571 19.9654C369.328 18.5107 374.12 19.5467 374.743 22.2094L370.901 52.3534H384.773L388.28 25.44C389.292 17.672 383.567 13.3574 376.019 13.3574H375.871L375.863 13.4241L375.781 13.3721H367.423L369.151 4.38106e-05H369.001C361.455 4.38106e-05 354.676 4.31473 353.679 12.0841L348.512 52.3534ZM406.625 32.6067C407.371 28.212 408.116 23.8187 408.861 19.424C412.903 18.672 417.037 18.3747 417.432 22.0361C417.752 25.0027 416.973 28.072 415.507 30.7414C414.343 32.86 410.559 32.8294 406.625 32.6067ZM392.807 38.9094L396.021 15.9467C397.888 14.1867 401.245 13.2574 406.095 13.1574C410.775 13.1574 415.455 13.1574 420.133 13.1574C425.856 13.6721 430.553 16.7481 430.315 23.5654C430.015 29.2667 426.237 38.9467 414.883 38.8027C411.953 38.8027 408.464 38.8027 405.536 38.8027C405.301 40.4427 405.035 42.2201 405.029 43.7521C405.021 45.9921 406.983 47.708 409.007 47.708H421.1C422.068 47.7 422.829 48.1067 423.135 49.4254V51.9041H403.093C395.011 51.9041 391.741 46.5134 392.807 38.9094ZM404.451 7.90004L404.437 3.48806L423.657 3.54405V3.59207C423.664 5.9934 422.085 7.96673 419.233 7.95607L404.451 7.90004ZM287.828 32.9387L289.997 19.3574C294.039 18.6054 297.709 18.3747 298.104 22.0361C298.424 25.0027 297.448 28.4027 295.98 31.0721C294.817 33.1907 291.761 33.1601 287.828 32.9387ZM286.804 38.8027H290.973L298.929 51.6827H312.052L303.051 37.1094C308.664 34.1027 310.767 27.7574 310.987 23.5654C311.227 16.7481 306.528 13.6721 300.807 13.1574C296.127 13.1574 291.447 13.1574 286.767 13.1574C281.919 13.2574 278.56 14.1867 276.693 15.9467L271.689 51.6347H285.343L286.804 38.8027ZM268.812 26.1521L265.596 49.1147C263.729 50.8734 260.372 51.8027 255.523 51.9041C250.843 51.9041 246.164 51.9041 241.484 51.9041C235.761 51.3881 231.064 48.3121 231.303 41.4961C231.603 35.7961 237.003 26.1147 248.357 26.2587C251.287 26.2587 253.153 26.2587 256.083 26.2587C256.659 22.2214 257.432 17.3534 254.023 17.3534H238.197C237.843 15.3041 239.827 13.1387 241.84 13.1281L258.524 13.1574C266.607 13.1707 269.876 18.5481 268.812 26.1521ZM254.992 32.4547C254.247 36.8481 253.501 41.2427 252.756 45.6374C248.591 47.5934 244.58 46.6867 244.185 43.0254C243.961 40.9387 244.279 38.8027 244.997 36.7907C246.713 31.9774 250.936 32.1881 254.992 32.4547ZM225.939 52.3534H212.065L215.907 22.2094C215.228 19.3081 210.349 18.3387 207.797 20.4174L207.485 22.5521L207.479 22.5427L203.496 52.3534H203.408H189.623H189.535L193.376 22.2094C192.697 19.3081 187.819 18.3387 185.267 20.4174L184.955 22.5521L184.948 22.5427L180.965 52.3534H173.544L168.916 44.4747L172.305 17.4507C177.023 12.4254 187.329 13.3721 194.415 13.3721C196.209 13.2601 198.221 13.5934 199.924 14.1627C202.664 13.4387 205.672 13.3627 208.56 13.4267L208.633 13.3721C211.404 13.3721 214.175 13.3721 216.945 13.3721C224.159 12.9241 230.448 17.7334 229.444 25.44L225.939 52.3534ZM348.545 19.6481C348.645 18.4547 348.744 17.2601 348.844 16.0654C348.976 14.0094 347.916 13.0134 345.663 13.0801C341.188 13.0801 336.715 13.0801 332.24 13.0801C324.157 13.5107 319.255 17.5254 317.532 25.1227C316.869 30.1654 316.207 35.2081 315.544 40.2507C314.675 46.8361 317.636 51.1307 324.491 51.7961C331.344 52.4614 337.213 51.9814 343.575 51.4974C344.007 49.6401 344.436 47.7814 344.868 45.924C336.297 47.6587 328.005 49.1427 328.267 42.8387C329.063 36.8494 329.859 30.8601 330.655 24.8707C331.028 22.0574 330.861 20.5294 333.609 19.0454C337.279 17.0641 342.636 17.8947 348.545 19.6481Z" fill="#ED1C24"/>
<path fill-rule="evenodd" clip-rule="evenodd" d="M177.174 58.6134H422.33L418.974 79.0427H188.64L177.174 58.6134Z" fill="#231F20"/>
</svg>
