<?xml version="1.0" encoding="UTF-8"?>
<svg id="SVGRoot" width="500" height="144.81" version="1.1" viewBox="0 0 499.99969 144.81485" xmlns="http://www.w3.org/2000/svg" xmlns:cc="http://creativecommons.org/ns#" xmlns:dc="http://purl.org/dc/elements/1.1/" xmlns:rdf="http://www.w3.org/1999/02/22-rdf-syntax-ns#"><metadata><rdf:RDF><cc:Work rdf:about=""><dc:format>image/svg+xml</dc:format><dc:type rdf:resource="http://purl.org/dc/dcmitype/StillImage"/><dc:title/></cc:Work></rdf:RDF></metadata><g transform="translate(-2165.4 523.85)"><g fill="#c20038"><path d="m2382.6-432.38v-4.4207c-1.9432 0.67263-4.9401 1.009-7.683 1.009-3.0418 0-5.0634 0.40358-6.0761 1.1995-0.5941 0.46711-0.8894 1.2033-0.8894 2.2122s0.2953 1.7488 0.8894 2.2122c1.0127 0.84079 3.0343 1.2593 6.0761 1.2593 3.0792 0 5.7846-0.41853 6.7973-1.2631 0.5904-0.46336 0.8857-1.1995 0.8857-2.2085m6.5843 7e-3c0 6.7114-5.1942 10.067-14.267 10.067-5.1905 0-8.9273-1.2033-11.203-3.6098-1.562-1.6853-2.343-3.8415-2.343-6.4572 0-2.6121 0.781-4.7682 2.343-6.4573 2.2757-2.4028 6.0125-3.606 11.203-3.606 3.0792 0 5.7846-0.42227 6.7973-1.2631 0.5904-0.46336 0.8857-1.1771 0.8857-2.1449 0-1.0127-0.2953-1.7488-0.8857-2.2085-1.0127-0.84079-3.7181-1.2631-6.7973-1.2631-3.0418 0-5.0634 0.41853-6.0761 1.2593-0.5941 0.45963-0.8894 1.1958-0.8894 2.201h-6.5805c0-2.6158 0.781-4.7682 2.343-6.4535 2.2757-2.4065 6.0125-3.606 11.203-3.606 9.0731 0 14.267 3.352 14.267 10.06h0.026z"/><path d="m2459.7-422.3h-6.5843v-16.763c0-3.4155-0.568-5.8818-1.7077-7.4027-1.435-1.8946-3.2511-2.8437-6.7525-2.8437s-5.949 1.6068-7.3429 3.5014c-1.1397 1.5172-1.7114 3.9872-1.7114 7.4027v16.106h-6.5806v-16.106c0-3.4155-0.5718-5.8855-1.7115-7.4027-1.4349-1.8946-3.2473-3.5014-6.7525-3.5014-3.5014 0-5.949 0.94915-7.3429 2.8437-1.1397 1.5209-1.7077 3.9872-1.7077 7.4027v16.763h-6.5843v-16.775c0-11.225 5.2129-16.838 15.635-16.838 5.5717 0 9.0507 2.3654 11.752 5.7809 2.6606-3.4155 6.7786-5.7809 12.346-5.7809 10.467 0 15.044 5.6127 15.044 16.838z"/><path d="m2488.6-442.39c-0.6315-4.615-3.5874-6.9244-8.86-6.9244-5.2353 0-8.1874 2.3094-8.8601 6.9244zm4.2002-21.625-3.1763 0.85573-15.788 4.2413-1.7788-6.3601 3.1726-0.91553 15.855-4.2488zm2.6382 41.711h-15.698c-10.426 0-15.635-5.5903-15.635-16.775 0-11.225 5.2092-16.834 15.635-16.834 10.463 0 15.698 5.609 15.698 16.834v3.2884h-24.558c0.6727 4.5926 3.6248 6.8833 8.8601 6.8833h15.698z"/><path d="m2525.2-439.08v-10.194h-9.0507c-3.5051 0-5.9527 0.93048-7.3429 2.784-1.1434 1.5209-1.7114 3.9909-1.7114 7.4102s0.568 5.8893 1.7114 7.4064c1.3902 1.902 3.8378 2.8475 7.3429 2.8475 3.5015 0 5.9491-0.94542 7.3429-2.8475 1.1398-1.5172 1.7078-3.9872 1.7078-7.4064m6.5805 0.0149c0 11.225-5.2091 16.842-15.631 16.842-10.467 0-15.702-5.6202-15.702-16.857 0-11.196 5.2354-16.793 15.702-16.793h9.0507v-13.202h6.5805z"/><path d="m2537.6-455.92h6.5806v33.613h-6.5806zm6.5806-6.5582h-6.5806v-6.5993h6.5806z"/><path d="m2579.6-432.56c-1.8161 6.8384-6.7749 10.254-14.876 10.254-10.422 0-15.639-5.6127-15.639-16.834 0-11.181 5.2166-16.775 15.639-16.775 8.1015 0 13.06 3.4155 14.876 10.25h-6.9617c-1.2668-2.4327-3.905-3.6509-7.9147-3.6509-3.5014 0-5.9527 0.92674-7.3466 2.7802-1.136 1.5172-1.7077 3.9835-1.7077 7.3952 0 3.4117 0.5717 5.8743 1.7077 7.3915 1.3939 1.8946 3.8452 2.8437 7.3466 2.8437 3.9648 0 6.603-1.2182 7.9147-3.6546z"/><path d="m2604.6-432.38v-4.4207c-1.9431 0.67263-4.9401 1.009-7.6829 1.009-3.0381 0-5.0634 0.40358-6.0761 1.1995-0.5942 0.46711-0.8894 1.2033-0.8894 2.2122s0.2952 1.7488 0.8894 2.2122c1.0127 0.84079 3.038 1.2593 6.0761 1.2593 3.0791 0 5.7809-0.41853 6.7973-1.2631 0.5904-0.46336 0.8856-1.1995 0.8856-2.2085m6.5843 7e-3c0 6.7114-5.1942 10.067-14.267 10.067-5.1905 0-8.9236-1.2033-11.203-3.6098-1.5657-1.6853-2.3467-3.8415-2.3467-6.4572 0-2.6121 0.781-4.7682 2.3467-6.4573 2.2795-2.4028 6.0126-3.606 11.203-3.606 3.0791 0 5.7809-0.42227 6.7973-1.2631 0.5904-0.46336 0.8856-1.1771 0.8856-2.1449 0-1.0127-0.2952-1.7488-0.8856-2.2085-1.0164-0.84079-3.7182-1.2631-6.7973-1.2631-3.0381 0-5.0634 0.41853-6.0761 1.2593-0.5942 0.45963-0.8894 1.1958-0.8894 2.201h-6.5843c0-2.6158 0.781-4.7682 2.3467-6.4535 2.2795-2.4065 6.0126-3.606 11.203-3.606 9.073 0 14.267 3.352 14.267 10.06h0.026z"/><path d="m2633-422.3c-11.226 0-16.842-4.0507-16.842-12.152v-34.618h6.588v34.603c0 1.7302 0.5867 3.0156 1.7713 3.8564 1.562 1.1397 4.387 1.7077 8.4826 1.7077z"/><path d="m2658.6-442.39c-0.6764-4.615-3.6322-6.9244-8.8638-6.9244-5.2764 0-8.2509 2.3094-8.9236 6.9244zm6.7749 20.086h-15.639c-10.467 0-15.698-5.5903-15.698-16.775 0-11.225 5.2316-16.834 15.698-16.834 10.426 0 15.639 5.609 15.639 16.834v3.2884h-24.562c0.6727 4.5926 3.6472 6.8833 8.9236 6.8833h15.639z"/><path d="m2358.4-422.71h-7.6082c-10.964-0.0971-16.442-4.1442-16.442-12.148v-34.622h6.5843v34.603c0 1.7302 0.5905 3.0156 1.7713 3.8602 1.5172 1.1061 4.2301 1.6741 8.1388 1.704 0.1121 0 7.4401 4e-3 7.5559 4e-3z"/><path d="m2342.3-392.98h-3.0717c-1.6479 0-2.4513 0.66889-2.4513 1.9357 0 1.2705 0.781 1.8722 2.5186 1.8722 0.9342 0 1.7563-0.0673 2.4476-0.73615 0.3812-0.355 0.5568-0.97905 0.5568-1.8946zm0 5.0559v-1.0463c-0.8893 0.88937-1.6928 1.1771-3.1613 1.1771-1.5135 0-2.4066-0.28774-3.0941-1.0015-0.5344-0.53437-0.8259-1.3565-0.8259-2.2272 0-1.9133 1.3378-3.1614 3.7854-3.1614h3.2959v-1.0463c0-1.6031-0.7997-2.4065-2.8063-2.4065-1.4014 0-2.1151 0.33632-2.7616 1.2481l-1.0874-1.0015c0.9753-1.2705 2.0889-1.6255 3.8714-1.6255 2.9409 0 4.387 1.2705 4.387 3.6509v7.44z"/><path d="m2351-387.79c-1.846 0-3.2959-0.42227-4.4992-1.5807l1.0688-1.0687c0.8707 0.91179 2.0515 1.2668 3.408 1.2668 1.8049 0 2.9184-0.64274 2.9184-1.9357 0-0.95663-0.5567-1.491-1.8273-1.6031l-1.8011-0.15695c-2.1412-0.17563-3.2772-1.136-3.2772-2.9409 0-2.003 1.6928-3.2025 4.032-3.2025 1.5583 0 2.9633 0.37742 3.9424 1.1808l-1.0463 1.0463c-0.781-0.60163-1.7825-0.87068-2.9185-0.87068-1.6031 0-2.4476 0.69132-2.4476 1.8049 0 0.93421 0.5343 1.491 1.9132 1.6031l1.7601 0.15321c1.9132 0.17937 3.2286 0.91552 3.2286 2.9633 0 2.115-1.8049 3.3407-4.4543 3.3407"/><path d="m2361.5-387.79c-1.8497 0-3.2959-0.42227-4.4992-1.5807l1.0688-1.0687c0.8669 0.91179 2.0478 1.2668 3.408 1.2668 1.8049 0 2.9184-0.64274 2.9184-1.9357 0-0.95663-0.5605-1.491-1.8273-1.6031l-1.8049-0.15695c-2.1374-0.17563-3.2734-1.136-3.2734-2.9409 0-2.003 1.6928-3.2025 4.032-3.2025 1.5583 0 2.9596 0.37742 3.9386 1.1808l-1.0463 1.0463c-0.7772-0.60163-1.7787-0.87068-2.9147-0.87068-1.6031 0-2.4476 0.69132-2.4476 1.8049 0 0.93421 0.5306 1.491 1.9132 1.6031l1.7563 0.15321c1.917 0.17937 3.2324 0.91552 3.2324 2.9633 0 2.115-1.8049 3.3407-4.4543 3.3407"/><path d="m2375.8-387.92v-1.2257c-0.781 0.89311-1.8722 1.3602-3.0942 1.3602-1.1808 0-2.1598-0.35873-2.8287-1.0276-0.781-0.75484-1.1136-1.8012-1.1136-3.0717v-6.9916h1.6031v6.7487c0 1.9357 1.0239 2.9147 2.6718 2.9147 1.648 0 2.7391-1.0015 2.7391-2.9147v-6.7487h1.6031v10.956z"/><path d="m2387.3-396.78c-0.6016-0.60163-1.0463-0.80342-1.8946-0.80342-1.5994 0-2.627 1.2705-2.627 2.9409v6.7226h-1.6031v-10.953h1.6031v1.334c0.6054-0.91178 1.8049-1.4686 3.0754-1.4686 1.0464 0 1.8498 0.24289 2.627 1.0239z"/><path d="m2396-396c-0.4223-1.0052-1.4051-1.6479-2.5597-1.6479-1.1585 0-2.1375 0.64273-2.5598 1.6479-0.2466 0.60164-0.2915 0.93421-0.3363 1.8273h5.7884c-0.041-0.89311-0.086-1.2257-0.3326-1.8273m-5.4558 3.0268c0 2.4065 1.136 3.7854 3.2286 3.7854 1.2706 0 2.0067-0.37742 2.8737-1.2444l1.0911 0.95289c-1.1136 1.1136-2.1375 1.6965-4.0096 1.6965-2.8923 0-4.7869-1.7376-4.7869-5.6127 0-3.5425 1.7152-5.6127 4.4992-5.6127 2.8287 0 4.4991 2.0515 4.4991 5.3026v0.73242z"/><path d="m2408.5-387.92c-1.917 0-2.7839-1.2481-2.7839-2.9185v-12.937h1.6031v12.87c0 1.0687 0.355 1.6031 1.4723 1.6031h0.8669v1.3826z"/><path d="m2418.1-396c-0.4222-1.0052-1.4013-1.6479-2.5597-1.6479s-2.1375 0.64273-2.5597 1.6479c-0.2467 0.60164-0.2915 0.93421-0.3363 1.8273h5.7883c-0.041-0.89311-0.09-1.2257-0.3326-1.8273m-5.4557 3.0268c0 2.4065 1.136 3.7854 3.2286 3.7854 1.2705 0 2.0067-0.37742 2.8736-1.2444l1.0912 0.95289c-1.1136 1.1136-2.1375 1.6965-4.0097 1.6965-2.896 0-4.7868-1.7376-4.7868-5.6127 0-3.5425 1.7152-5.6127 4.4991-5.6127 2.8288 0 4.4954 2.0515 4.4954 5.3026v0.73242z"/><path d="m2426.7-387.79c-1.8497 0-3.2959-0.42227-4.4991-1.5807l1.0687-1.0687c0.867 0.91179 2.0478 1.2668 3.408 1.2668 1.8049 0 2.9185-0.64274 2.9185-1.9357 0-0.95663-0.5605-1.491-1.8273-1.6031l-1.8049-0.15695c-2.1375-0.17563-3.2735-1.136-3.2735-2.9409 0-2.003 1.6928-3.2025 4.0321-3.2025 1.5582 0 2.9595 0.37742 3.9386 1.1808l-1.0463 1.0463c-0.7773-0.60163-1.7788-0.87068-2.9148-0.87068-1.6031 0-2.4476 0.69132-2.4476 1.8049 0 0.93421 0.5344 1.491 1.9133 1.6031l1.7563 0.15321c1.917 0.17937 3.2323 0.91552 3.2323 2.9633 0 2.115-1.8048 3.3407-4.4543 3.3407"/><path d="m2443.1-397.59c-2.3841 0-2.7615 2.0478-2.7615 4.1853s0.3774 4.1853 2.7615 4.1853 2.7391-2.0478 2.7391-4.1853-0.355-4.1853-2.7391-4.1853m3.0082 8.8414c-0.5792 0.57921-1.562 0.95663-2.6756 0.95663-1.1995 0-2.2047-0.29147-3.0941-1.4275v6.1919h-1.6031v-15.855h1.6031v1.293c0.8894-1.1584 1.8946-1.4237 3.0941-1.4237 1.1136 0 2.0964 0.37742 2.6756 0.95663 1.1098 1.1136 1.334 2.9372 1.334 4.6524s-0.2242 3.5425-1.334 4.6561"/><path d="m2456.7-396.78c-0.6017-0.60163-1.0463-0.80342-1.8946-0.80342-1.6031 0-2.627 1.2705-2.627 2.9409v6.7226h-1.6031v-10.953h1.6031v1.334c0.6016-0.91178 1.8049-1.4686 3.0754-1.4686 1.0463 0 1.846 0.24289 2.627 1.0239z"/><path d="m2464.9-396.78c-0.5119-0.51194-1.2256-0.80342-2.0029-0.80342-0.781 0-1.4723 0.29148-1.9843 0.80342-0.7997 0.79969-0.8893 2.1599-0.8893 3.3856 0 1.222 0.09 2.5784 0.8893 3.3818 0.512 0.51195 1.2033 0.80342 1.9843 0.80342 0.7773 0 1.491-0.29147 2.0029-0.80342 0.7997-0.80342 0.867-2.1599 0.867-3.3818 0-1.2257-0.067-2.5859-0.867-3.3856m1.136 7.7465c-0.7585 0.75858-1.8049 1.2481-3.1389 1.2481-1.3378 0-2.3841-0.48953-3.1427-1.2481-1.1098-1.1323-1.334-2.6718-1.334-4.3609 0-1.6928 0.2242-3.2286 1.334-4.3646 0.7586-0.75858 1.8049-1.2481 3.1427-1.2481 1.334 0 2.3804 0.48952 3.1389 1.2481 1.1136 1.136 1.3378 2.6718 1.3378 4.3646 0 1.689-0.2242 3.2286-1.3378 4.3609"/><path d="m2472.5-397.59v9.6635h-1.6031v-9.6635h-1.405v-1.222h1.405v-2.0739c0-1.6255 0.9118-2.9372 2.784-2.9372h1.1546v1.3789h-0.8669c-1.0239 0-1.4686 0.60164-1.4686 1.6031v2.0291h2.3355v1.222z"/><path d="m2483.4-396c-0.4223-1.0052-1.405-1.6479-2.5635-1.6479-1.1546 0-2.1337 0.64273-2.556 1.6479-0.2466 0.60164-0.2914 0.93421-0.3363 1.8273h5.7884c-0.041-0.89311-0.09-1.2257-0.3326-1.8273m-5.4558 3.0268c0 2.4065 1.136 3.7854 3.2286 3.7854 1.2706 0 2.0067-0.37742 2.8737-1.2444l1.0874 0.95289c-1.1098 1.1136-2.1375 1.6965-4.0059 1.6965-2.896 0-4.7869-1.7376-4.7869-5.6127 0-3.5425 1.7152-5.6127 4.4954-5.6127 2.8288 0 4.4992 2.0515 4.4992 5.3026v0.73242z"/><path d="m2491.9-387.79c-1.846 0-3.2959-0.42227-4.4992-1.5807l1.0688-1.0687c0.8669 0.91179 2.0478 1.2668 3.408 1.2668 1.8049 0 2.9184-0.64274 2.9184-1.9357 0-0.95663-0.5605-1.491-1.8273-1.6031l-1.8049-0.15695c-2.1374-0.17563-3.2734-1.136-3.2734-2.9409 0-2.003 1.6927-3.2025 4.032-3.2025 1.5583 0 2.9596 0.37742 3.9386 1.1808l-1.0463 1.0463c-0.7772-0.60163-1.7787-0.87068-2.9147-0.87068-1.6031 0-2.4476 0.69132-2.4476 1.8049 0 0.93421 0.5343 1.491 1.9132 1.6031l1.7563 0.15321c1.917 0.17937 3.2324 0.91552 3.2324 2.9633 0 2.115-1.8049 3.3407-4.4543 3.3407"/><path d="m2502.4-387.79c-1.846 0-3.2958-0.42227-4.4991-1.5807l1.0725-1.0687c0.8669 0.91179 2.0478 1.2668 3.4042 1.2668 1.8049 0 2.9185-0.64274 2.9185-1.9357 0-0.95663-0.5568-1.491-1.8273-1.6031l-1.8012-0.15695c-2.1374-0.17563-3.2772-1.136-3.2772-2.9409 0-2.003 1.6928-3.2025 4.0321-3.2025 1.5582 0 2.9633 0.37742 3.9423 1.1808l-1.0463 1.0463c-0.781-0.60163-1.7825-0.87068-2.9185-0.87068-1.5993 0-2.4476 0.69132-2.4476 1.8049 0 0.93421 0.5344 1.491 1.9133 1.6031l1.76 0.15321c1.9133 0.17937 3.2287 0.91552 3.2287 2.9633 0 2.115-1.8049 3.3407-4.4544 3.3407"/><path d="m2509.8-398.88h1.6031v10.956h-1.6031zm-0.086-4.9214h1.8012v1.8012h-1.8012z"/><path d="m2521.1-396.78c-0.5119-0.51194-1.2257-0.80342-2.0029-0.80342-0.781 0-1.4724 0.29148-1.9843 0.80342-0.7997 0.79969-0.8894 2.1599-0.8894 3.3856 0 1.222 0.09 2.5784 0.8894 3.3818 0.5119 0.51195 1.2033 0.80342 1.9843 0.80342 0.7772 0 1.491-0.29147 2.0029-0.80342 0.7997-0.80342 0.867-2.1599 0.867-3.3818 0-1.2257-0.067-2.5859-0.867-3.3856m1.136 7.7465c-0.7586 0.75858-1.8049 1.2481-3.1389 1.2481-1.3378 0-2.3841-0.48953-3.139-1.2481-1.1136-1.1323-1.3378-2.6718-1.3378-4.3609 0-1.6928 0.2242-3.2286 1.3378-4.3646 0.7549-0.75858 1.8012-1.2481 3.139-1.2481 1.334 0 2.3803 0.48952 3.1389 1.2481 1.1136 1.136 1.3341 2.6718 1.3341 4.3646 0 1.689-0.2205 3.2286-1.3341 4.3609"/><path d="m2533.8-387.92v-6.745c0-1.9394-1.0463-2.9185-2.6943-2.9185-1.6479 0-2.7167 1.0015-2.7167 2.9185v6.745h-1.6031v-10.956h1.6031v1.2033c0.781-0.88937 1.846-1.3341 3.0755-1.3341 1.1771 0 2.1337 0.355 2.8026 1.0202 0.781 0.75858 1.136 1.7825 1.136 3.053v7.014z"/><path d="m2546.1-387.92v-6.745c0-1.9394-1.0463-2.9185-2.6943-2.9185-1.6479 0-2.7166 1.0015-2.7166 2.9185v6.745h-1.6031v-10.956h1.6031v1.2033c0.7772-0.88937 1.846-1.3341 3.0754-1.3341 1.1771 0 2.1337 0.355 2.8026 1.0202 0.781 0.75858 1.136 1.7825 1.136 3.053v7.014z"/><path d="m2557.8-396c-0.4222-1.0052-1.405-1.6479-2.5597-1.6479-1.1584 0-2.1375 0.64273-2.5635 1.6479-0.2429 0.60164-0.2877 0.93421-0.3326 1.8273h5.7884c-0.041-0.89311-0.086-1.2257-0.3326-1.8273m-5.4558 3.0268c0 2.4065 1.136 3.7854 3.2287 3.7854 1.2705 0 2.0067-0.37742 2.8736-1.2444l1.0912 0.95289c-1.1136 1.1136-2.1413 1.6965-4.0097 1.6965-2.8923 0-4.7869-1.7376-4.7869-5.6127 0-3.5425 1.7152-5.6127 4.4992-5.6127 2.8288 0 4.4991 2.0515 4.4991 5.3026v0.73242z"/><path d="m2565.7-387.92c-1.917 0-2.784-1.2481-2.784-2.9185v-12.937h1.6031v12.87c0 1.0687 0.355 1.6031 1.4723 1.6031h0.867v1.3826z"/><path d="m2572.8-387.79c-1.846 0-3.2959-0.42227-4.4992-1.5807l1.0688-1.0687c0.8669 0.91179 2.0477 1.2668 3.408 1.2668 1.8049 0 2.9184-0.64274 2.9184-1.9357 0-0.95663-0.5605-1.491-1.8273-1.6031l-1.8049-0.15695c-2.1375-0.17563-3.2735-1.136-3.2735-2.9409 0-2.003 1.6928-3.2025 4.0321-3.2025 1.5583 0 2.9596 0.37742 3.9386 1.1808l-1.0463 1.0463c-0.7773-0.60163-1.7787-0.87068-2.9147-0.87068-1.6031 0-2.4477 0.69132-2.4477 1.8049 0 0.93421 0.5344 1.491 1.9133 1.6031l1.7563 0.15321c1.917 0.17937 3.2324 0.91552 3.2324 2.9633 0 2.115-1.8049 3.3407-4.4543 3.3407"/><path d="m2589.2-397.59c-2.3842 0-2.7616 2.0478-2.7616 4.1853s0.3774 4.1853 2.7616 4.1853c2.3841 0 2.7391-2.0478 2.7391-4.1853s-0.355-4.1853-2.7391-4.1853m2.7615 9.6635v-1.3154c-0.8894 1.1584-1.917 1.4499-3.1165 1.4499-1.1136 0-2.0927-0.37742-2.6719-0.95663-1.1136-1.1136-1.3378-2.9409-1.3378-4.6561s0.2242-3.5388 1.3378-4.6524c0.5792-0.57921 1.5583-0.95663 2.6719-0.95663 1.1995 0 2.201 0.26532 3.0941 1.4013v-6.1695h1.6031v15.855z"/><path d="m2603.8-396c-0.4223-1.0052-1.4013-1.6479-2.5635-1.6479-1.1546 0-2.1337 0.64273-2.556 1.6479-0.2466 0.60164-0.2914 0.93421-0.3363 1.8273h5.7884c-0.041-0.89311-0.09-1.2257-0.3326-1.8273m-5.4558 3.0268c0 2.4065 1.136 3.7854 3.2287 3.7854 1.2705 0 2.0066-0.37742 2.8736-1.2444l1.0874 0.95289c-1.1098 1.1136-2.1337 1.6965-4.0059 1.6965-2.896 0-4.7869-1.7376-4.7869-5.6127 0-3.5425 1.7152-5.6127 4.4954-5.6127 2.8288 0 4.4992 2.0515 4.4992 5.3026v0.73242z"/><path d="m2617.7-387.79c-1.846 0-3.2959-0.42227-4.4991-1.5807l1.0725-1.0687c0.8669 0.91179 2.0477 1.2668 3.4042 1.2668 1.8049 0 2.9185-0.64274 2.9185-1.9357 0-0.95663-0.5568-1.491-1.8273-1.6031l-1.8012-0.15695c-2.1375-0.17563-3.2772-1.136-3.2772-2.9409 0-2.003 1.6928-3.2025 4.0321-3.2025 1.5582 0 2.9633 0.37742 3.9423 1.1808l-1.0463 1.0463c-0.781-0.60163-1.7825-0.87068-2.9185-0.87068-1.5993 0-2.4476 0.69132-2.4476 1.8049 0 0.93421 0.5344 1.491 1.9133 1.6031l1.76 0.15321c1.9133 0.17937 3.2286 0.91552 3.2286 2.9633 0 2.115-1.8048 3.3407-4.4543 3.3407"/><path d="m2631.3-392.98h-3.0717c-1.6479 0-2.4513 0.66889-2.4513 1.9357 0 1.2705 0.781 1.8722 2.5149 1.8722 0.9379 0 1.76-0.0673 2.4513-0.73615 0.3775-0.355 0.5568-0.97905 0.5568-1.8946zm0 5.0559v-1.0463c-0.8931 0.88937-1.6928 1.1771-3.1613 1.1771-1.5172 0-2.4066-0.28774-3.0941-1.0015-0.5382-0.53437-0.8259-1.3565-0.8259-2.2272 0-1.9133 1.3378-3.1614 3.7854-3.1614h3.2959v-1.0463c0-1.6031-0.8034-2.4065-2.8063-2.4065-1.4014 0-2.1151 0.33632-2.7616 1.2481l-1.0911-1.0015c0.979-1.2705 2.0926-1.6255 3.8751-1.6255 2.9409 0 4.387 1.2705 4.387 3.6509v7.44z"/><path d="m2643.6-387.92v-6.745c0-1.9394-1.0463-2.9185-2.6943-2.9185-1.6479 0-2.7167 1.0015-2.7167 2.9185v6.745h-1.6031v-10.956h1.6031v1.2033c0.781-0.88937 1.846-1.3341 3.0754-1.3341 1.1771 0 2.1338 0.355 2.8027 1.0202 0.781 0.75858 1.136 1.7825 1.136 3.053v7.014z"/><path d="m2652-387.92c-1.8721 0-2.8064-1.3154-2.8064-2.9409v-6.7226h-1.3789v-1.2257h1.3789v-3.4304h1.6031v3.4304h2.3393v1.2257h-2.3393v6.6777c0 1.0015 0.4709 1.6031 1.4948 1.6031h0.8445v1.3826z"/><path d="m2660.4-401.15h-1.4686l1.9581-3.408h1.9133zm2.1151 5.1456c-0.4223-1.0052-1.4014-1.648-2.5598-1.648s-2.1374 0.64274-2.5634 1.648c-0.2429 0.5979-0.2878 0.93421-0.3326 1.8236h5.7883c-0.045-0.88937-0.09-1.2257-0.3325-1.8236m-5.4558 3.0268c0 2.4065 1.136 3.7854 3.2286 3.7854 1.2705 0 2.0067-0.37742 2.8736-1.2481l1.0875 0.95663c-1.1099 1.1136-2.1338 1.6965-4.0059 1.6965-2.8961 0-4.7869-1.7376-4.7869-5.6127 0-3.5425 1.7152-5.6127 4.4991-5.6127 2.8251 0 4.4954 2.0478 4.4954 5.2988v0.73616z"/><path d="m2237.3-477.78c-8.3818-0.10464-19.271 5.5006-20.844 18.109-0.2317 1.8647-0.1906 10.172-0.1906 12.077 4.7981-2.3729 26.225-13.494 31.199-15.926 0-4.0844 0.5642-6.5955 1.8946-10.441-3.4379-2.4476-7.2159-3.7593-12.059-3.819"/></g><path d="m2292.9-455.91c0-21.173-17.163-38.336-38.336-38.336-20.048 0-36.49 15.385-38.183 34.992 0.3438-2.9147 1.1622-5.7809 2.5747-8.2024 3.6471-6.2555 10.542-10.321 18.303-10.321 4.544 0 8.7779 1.4985 12.216 3.9498 0.3101 0.19805 0.624 0.38863 0.8856 0.63527 4.8355 3.8527 7.9333 9.7868 7.9333 16.45v77.711l34.79-19.962v-51.18c0-1.7302-0.1831-5.4969-0.1831-5.736" fill="#f39100"/><path d="m2202.2-502.16c-3.4192-1.6778-7.2607-2.6195-11.323-2.6195-12.515 0-23.269 8.9535-25.343 21.274-0.1345 1.6367-0.1271 2.8176-0.1271 4.5702 0 8.5424-0.037 61.011-0.037 61.011l34.398-17.653v-44.808c0-8.7106 1.973-15.385 4.7383-20.485-0.052-0.0336-0.1009-0.0673-0.1495-0.10089z" fill="#e73f29"/><path d="m2207.5-523.85c-17.294 0-39.857 10.302-42.04 40.41 0.034-0.19058 0.075-0.37742 0.1084-0.568 2.3168-11.838 12.731-20.773 25.25-20.773 4.062 0 7.9034 0.94169 11.323 2.6195l2.1525 1.1883c0.052 0.0336 0.1008 0.0673 0.1494 0.1009 7.2719 4.5477 12.111 12.619 12.111 21.827 0 0.90805-0.049 1.8012-0.1382 2.6868 7.3914-14.234 20.407-19.383 29.596-21.726-3.4304-13.083-19.858-25.766-38.512-25.766" fill="#c20038"/></g></svg>
