<svg width="536" height="560" viewBox="0 0 536 560" fill="none" xmlns="http://www.w3.org/2000/svg">
<path d="M10.8203 335.312C31.0992 335.236 65.4391 332.883 83.4102 338.621C109.703 347.017 110.953 381.699 83.459 393.617C104.594 399.459 113.548 411.595 108.498 433.802C98.9028 458.447 67.0663 455.302 45.6895 455.254L10.7734 455.151L10.8203 335.312ZM100.344 423.479C100.377 395.81 68.3069 398.384 49.2148 398.517C39.3478 398.586 29.6011 398.66 19.9111 398.555L19.8535 447.396C38.4055 447.459 79.4606 450.817 93.1396 439.97C98.3776 434.704 100.335 430.938 100.344 423.479ZM73.6582 344.34C56.7543 342.237 37.1044 343.164 19.9365 343.2C19.9645 358.829 20.0635 374.856 19.8125 390.469L46.4072 390.508C60.5162 390.52 75.6367 392.094 87.1787 382.911C101.016 368.156 92.7232 346.712 73.6582 344.34Z" fill="#030303"/>
<path d="M221.531 335.297C240.905 335.218 276.95 332.944 294.538 338.74C319.878 347.091 322.27 381.326 294.115 393.619C315.625 399.857 324.865 412.23 318.593 434.829C308.286 458.501 277.711 455.275 256.43 455.233L221.482 455.142L221.531 335.297ZM311.108 422.036C309.239 396.53 280.936 398.546 263.221 398.536L230.521 398.528L230.57 447.41C249.498 447.473 289.801 450.887 303.946 439.839C308.857 434.651 311.644 429.351 311.108 422.036ZM298.147 350.806C288.078 341.488 269.963 343.112 256.983 343.144L230.586 343.172L230.543 390.462C249.282 390.513 283.113 393.839 297.648 383.13C306.387 374.047 307.925 359.854 298.147 350.806Z" fill="#030303"/>
<path d="M471.058 335.327L480.359 335.288L528.134 440.524C529.524 443.664 532.964 451.353 531.728 454.545C529.829 455.495 527.08 455.2 524.859 455.183C518.711 439.918 510.463 422.508 503.593 407.383L476.249 346.874L475.418 346.589C473.819 348.824 463.542 372.299 461.64 376.489C449.644 402.642 437.803 428.867 426.117 455.16C423.057 455.155 419.777 455.028 416.699 454.958C421.347 443.057 429.086 427.109 434.485 415.24L471.058 335.327Z" fill="#030303"/>
<path d="M214.818 0.346189C255.556 -1.32381 308.638 1.8742 336.134 36.5632C347.273 50.5932 352.214 68.5562 349.819 86.3102C347.369 105.681 337.862 120.108 322.77 131.948C334.881 134.004 346.183 139.387 355.413 147.494C367.609 158.195 374.971 173.365 375.831 189.567C378.068 226.226 350.567 252.185 315.366 255.481C311.633 255.83 307.929 256.022 304.185 256.207C301.254 256.324 299.488 256.082 296.603 255.775C327.023 252.507 356.406 234.378 359.432 201.521C360.862 187.057 356.325 172.636 346.872 161.596C334.009 146.374 316.393 138.916 296.848 137.248C298.707 136.425 300.549 135.589 302.331 134.607C316.519 126.769 327.048 113.656 331.636 98.1102C335.73 83.7352 334.018 68.3272 326.867 55.2022C310.828 26.3822 270.019 14.0752 239.924 6.13818C231.695 3.96718 223.081 2.68419 214.818 0.346189Z" fill="#030303"/>
<path d="M229.662 43.2246L229.724 44.0656C223.054 56.1956 218.734 65.6666 215.751 79.1646C214.386 85.6126 213.358 92.1266 212.671 98.6806C211.563 109.415 211.613 128.312 205.512 136.44C197.087 147.368 185.043 154.817 174.744 163.821C164.458 172.815 179.737 177.463 182.866 182.42C193.595 199.411 171.351 195.461 190.602 212.055C187.883 213.873 186.125 214.923 184.278 217.592C183.438 222.361 186.602 223.742 188.791 228.211C191.784 234.036 186.586 240.362 185.344 245.937C181.783 264.611 201.697 261.025 213.249 260.547C233.517 259.708 266.592 249.319 279.419 270.575C280.521 272.402 282.748 276.754 282.259 278.698L280.979 276.78C279.651 274.599 277.509 271.875 275.444 270.231C256.641 257.19 229.192 267.114 207.435 267.705C193.411 268.086 177.582 267.477 178.962 247.979C179.246 243.977 184.791 235.723 183.601 232.184C180.151 221.918 172.734 221.812 183.306 212.322C182.308 211.558 181.32 210.781 180.342 209.991C170.61 201.975 181.531 198.515 180.157 189.864C178.798 181.311 165.586 180.177 164.852 170.503C164.198 161.88 171.743 157.935 177.581 153.169C186.155 146.168 195.829 140.057 202.014 130.639C205.965 124.322 206.719 110.328 207.734 102.812C210.392 83.1236 216.831 58.8726 229.662 43.2246Z" fill="#030303"/>
<path d="M1.5 531.333L80.5 531.333" stroke="#030303" stroke-width="3" stroke-linecap="round"/>
<path d="M127.6 542.133C126.633 542.966 125.517 543.616 124.25 544.083C122.983 544.516 121.633 544.733 120.2 544.733C118.933 544.733 117.717 544.6 116.55 544.333C115.383 544.033 114.333 543.666 113.4 543.233C112.467 542.8 111.633 542.316 110.9 541.783C110.2 541.216 109.65 540.65 109.25 540.083V534.533H112.25V538.983C113.15 539.75 114.233 540.4 115.5 540.933C116.767 541.466 118.233 541.733 119.9 541.733C120.9 541.733 121.85 541.583 122.75 541.283C123.683 540.983 124.5 540.55 125.2 539.983C125.9 539.416 126.45 538.716 126.85 537.883C127.283 537.05 127.5 536.1 127.5 535.033C127.5 534.166 127.4 533.366 127.2 532.633C127 531.9 126.683 531.283 126.25 530.783C125.683 530.116 125.033 529.583 124.3 529.183C123.6 528.783 122.817 528.4 121.95 528.033C120.75 527.6 119.483 527.2 118.15 526.833C116.85 526.466 115.65 525.966 114.55 525.333C113.417 524.733 112.467 523.916 111.7 522.883C110.967 521.816 110.583 520.35 110.55 518.483C110.517 517.383 110.65 516.283 110.95 515.183C111.283 514.083 111.833 513.083 112.6 512.183C113.333 511.283 114.3 510.55 115.5 509.983C116.733 509.416 118.233 509.133 120 509.133C120.567 509.133 121.183 509.166 121.85 509.233C122.55 509.3 123.283 509.416 124.05 509.583C124.75 509.783 125.483 510.066 126.25 510.433C127.017 510.8 127.767 511.283 128.5 511.883V517.033H125.5V513.383C124.833 513.05 124.033 512.766 123.1 512.533C122.2 512.266 121.167 512.133 120 512.133C118.9 512.133 117.95 512.316 117.15 512.683C116.35 513.016 115.7 513.483 115.2 514.083C114.7 514.683 114.317 515.35 114.05 516.083C113.817 516.816 113.7 517.583 113.7 518.383C113.7 519.616 113.983 520.6 114.55 521.333C115.15 522.033 115.933 522.616 116.9 523.083C118.133 523.683 119.567 524.216 121.2 524.683C122.833 525.116 124.4 525.7 125.9 526.433C127.3 527.1 128.433 528.116 129.3 529.483C130.2 530.816 130.65 532.65 130.65 534.983C130.683 536.483 130.417 537.833 129.85 539.033C129.317 540.233 128.567 541.266 127.6 542.133ZM184.858 542.233C183.525 543 182.092 543.616 180.558 544.083C179.058 544.516 177.458 544.733 175.758 544.733C173.292 544.733 170.975 544.266 168.808 543.333C166.642 542.4 164.758 541.116 163.158 539.483C161.525 537.883 160.242 536 159.308 533.833C158.375 531.666 157.908 529.35 157.908 526.883C157.908 524.416 158.375 522.1 159.308 519.933C160.242 517.733 161.525 515.816 163.158 514.183C164.758 512.583 166.642 511.316 168.808 510.383C170.975 509.416 173.292 508.933 175.758 508.933C177.458 508.933 179.058 509.15 180.558 509.583C182.092 510.016 183.542 510.633 184.908 511.433V517.033H181.908V513.383C180.942 512.916 179.942 512.566 178.908 512.333C177.875 512.066 176.825 511.933 175.758 511.933C173.725 511.933 171.808 512.333 170.008 513.133C168.242 513.9 166.708 514.966 165.408 516.333C164.042 517.7 162.975 519.3 162.208 521.133C161.442 522.933 161.058 524.85 161.058 526.883C161.058 528.916 161.442 530.85 162.208 532.683C162.975 534.483 164.042 536.033 165.408 537.333C166.708 538.7 168.242 539.783 170.008 540.583C171.775 541.35 173.675 541.733 175.708 541.733C177.042 541.733 178.325 541.566 179.558 541.233C180.825 540.866 182.008 540.366 183.108 539.733L184.858 542.233ZM223.526 544.333H212.426V541.333H216.326V512.333H212.426V509.333H223.526V512.333H219.476V525.183H239.626V512.333H235.576V509.333H246.726V512.333H242.776V541.333H246.726V544.333H235.576V541.333H239.626V528.183H219.476V541.333H223.526V544.333ZM304.719 539.483C303.085 541.116 301.185 542.4 299.019 543.333C296.852 544.266 294.535 544.733 292.069 544.733C289.602 544.733 287.285 544.266 285.119 543.333C282.952 542.4 281.069 541.116 279.469 539.483C277.835 537.883 276.552 536 275.619 533.833C274.685 531.666 274.219 529.35 274.219 526.883C274.219 524.416 274.685 522.1 275.619 519.933C276.552 517.766 277.835 515.866 279.469 514.233C281.069 512.6 282.952 511.316 285.119 510.383C287.285 509.416 289.602 508.933 292.069 508.933C294.535 508.933 296.852 509.416 299.019 510.383C301.185 511.316 303.085 512.6 304.719 514.233C306.352 515.866 307.635 517.766 308.569 519.933C309.535 522.1 310.019 524.416 310.019 526.883C310.019 529.35 309.535 531.666 308.569 533.833C307.635 536 306.352 537.883 304.719 539.483ZM281.719 537.333C283.019 538.7 284.552 539.783 286.319 540.583C288.119 541.35 290.035 541.733 292.069 541.733C294.102 541.733 296.019 541.35 297.819 540.583C299.619 539.783 301.185 538.7 302.519 537.333C303.852 536.033 304.902 534.483 305.669 532.683C306.469 530.85 306.869 528.916 306.869 526.883C306.869 524.85 306.469 522.933 305.669 521.133C304.902 519.3 303.869 517.716 302.569 516.383C301.202 515.016 299.619 513.95 297.819 513.183C296.052 512.383 294.152 511.983 292.119 511.983C290.085 511.983 288.169 512.383 286.369 513.183C284.569 513.95 283.019 515.016 281.719 516.383C280.352 517.716 279.285 519.3 278.519 521.133C277.752 522.933 277.369 524.85 277.369 526.883C277.369 528.95 277.752 530.883 278.519 532.683C279.285 534.483 280.352 536.033 281.719 537.333ZM368.025 539.483C366.392 541.116 364.492 542.4 362.325 543.333C360.159 544.266 357.842 544.733 355.375 544.733C352.909 544.733 350.592 544.266 348.425 543.333C346.259 542.4 344.375 541.116 342.775 539.483C341.142 537.883 339.859 536 338.925 533.833C337.992 531.666 337.525 529.35 337.525 526.883C337.525 524.416 337.992 522.1 338.925 519.933C339.859 517.766 341.142 515.866 342.775 514.233C344.375 512.6 346.259 511.316 348.425 510.383C350.592 509.416 352.909 508.933 355.375 508.933C357.842 508.933 360.159 509.416 362.325 510.383C364.492 511.316 366.392 512.6 368.025 514.233C369.659 515.866 370.942 517.766 371.875 519.933C372.842 522.1 373.325 524.416 373.325 526.883C373.325 529.35 372.842 531.666 371.875 533.833C370.942 536 369.659 537.883 368.025 539.483ZM345.025 537.333C346.325 538.7 347.859 539.783 349.625 540.583C351.425 541.35 353.342 541.733 355.375 541.733C357.409 541.733 359.325 541.35 361.125 540.583C362.925 539.783 364.492 538.7 365.825 537.333C367.159 536.033 368.209 534.483 368.975 532.683C369.775 530.85 370.175 528.916 370.175 526.883C370.175 524.85 369.775 522.933 368.975 521.133C368.209 519.3 367.175 517.716 365.875 516.383C364.509 515.016 362.925 513.95 361.125 513.183C359.359 512.383 357.459 511.983 355.425 511.983C353.392 511.983 351.475 512.383 349.675 513.183C347.875 513.95 346.325 515.016 345.025 516.383C343.659 517.716 342.592 519.3 341.825 521.133C341.059 522.933 340.675 524.85 340.675 526.883C340.675 528.95 341.059 530.883 341.825 532.683C342.592 534.483 343.659 536.033 345.025 537.333ZM425.832 544.333H400.832V541.333H403.932V512.333H400.832V509.333H411.232V512.333H407.082V541.333H422.782V536.633H425.832V544.333Z" fill="#030303"/>
<path d="M455.5 531.333L534.5 531.333" stroke="#030303" stroke-width="3" stroke-linecap="round"/>
</svg>
