<svg fill="#335DFF" xmlns="http://www.w3.org/2000/svg" viewBox="0 0 250 60">
  <path d="M4.97 0l19.35 0 11.29 15.63 11.26 -15.63 20.84 0 -32.1 43 -30.64 -43zm-4.97 60l18.68 -24.85 2.77 2.42 -14.2 18.94 14.35 -0.01 10.41 -13.46 2.57 2.5 -11.35 14.46 -23.23 0zm71.16 0l-18.68 -24.85 -2.78 2.42 14.21 18.94 -14.35 -0.01 -10.41 -13.46 -2.57 2.5 11.34 14.46 23.24 0z" />
  <path fill-rule="nonzero" d="M101.53 55.02l-17.54 -50.86 9.99 0 13.76 42.12 -1.96 0 13.76 -42.12 9.98 0 -17.46 50.86 -10.53 0zm32.85 0l0 -37.14 8.84 0 0 37.14 -8.84 0zm0 -41.3l0 -9.56 8.84 0 0 9.56 -8.84 0zm17 41.3l0 -37.14 8.3 0 0 8.26 -0.68 -1.23c0.86,-2.77 2.19,-4.7 4.02,-5.8 1.82,-1.09 4.01,-1.64 6.57,-1.64l2.16 0 0 7.92 -3.17 0c-2.52,0 -4.54,0.79 -6.07,2.36 -1.53,1.57 -2.29,3.76 -2.29,6.58l0 20.69 -8.84 0zm42.63 0.82c-3.78,0 -7.08,-0.87 -9.91,-2.6 -2.84,-1.73 -5.04,-4.07 -6.61,-7.03 -1.58,-2.96 -2.37,-6.23 -2.37,-9.83 0,-3.73 0.8,-7.04 2.4,-9.93 1.59,-2.89 3.78,-5.18 6.54,-6.86 2.77,-1.68 5.86,-2.53 9.28,-2.53 2.87,0 5.4,0.48 7.59,1.44 2.18,0.95 4.03,2.27 5.56,3.96 1.53,1.68 2.7,3.6 3.51,5.76 0.81,2.17 1.21,4.5 1.21,7 0,0.64 -0.03,1.3 -0.1,1.98 -0.07,0.68 -0.19,1.28 -0.37,1.78l-28.33 0 0 -6.83 23.34 0 -4.18 3.21c0.4,-2.1 0.3,-3.96 -0.31,-5.6 -0.6,-1.64 -1.59,-2.93 -2.97,-3.89 -1.37,-0.96 -3.02,-1.43 -4.95,-1.43 -1.85,0 -3.49,0.46 -4.93,1.4 -1.44,0.93 -2.53,2.29 -3.27,4.09 -0.74,1.8 -1.02,3.97 -0.84,6.52 -0.18,2.28 0.12,4.29 0.91,6.04 0.79,1.75 1.96,3.11 3.51,4.06 1.55,0.96 3.33,1.44 5.36,1.44 2.02,0 3.74,-0.44 5.16,-1.3 1.42,-0.87 2.53,-2.03 3.34,-3.48l7.15 3.55c-0.72,1.77 -1.85,3.34 -3.37,4.71 -1.53,1.36 -3.34,2.43 -5.43,3.21 -2.1,0.77 -4.4,1.16 -6.92,1.16zm19.9 -0.82l12.82 -18.64 -12.89 -18.5 10.39 0 10.05 15.02 -4.65 0 10.05 -15.02 10.32 0 -12.82 18.5 12.75 18.64 -10.32 0 -9.92 -14.95 4.52 0 -9.91 14.95 -10.39 0z" />
</svg>