<svg xmlns="http://www.w3.org/2000/svg" version="1.1" xmlns:xlink="http://www.w3.org/1999/xlink" width="1000" height="1000"><metadata><rdf:RDF xmlns:rdf="http://www.w3.org/1999/02/22-rdf-syntax-ns#" xmlns:dc="http://purl.org/dc/elements/1.1/"><rdf:Description><dc:creator>RealFaviconGenerator</dc:creator><dc:source>https://realfavicongenerator.net</dc:source></rdf:Description></rdf:RDF></metadata><g clip-path="url(#SvgjsClipPath1022)"><rect width="1000" height="1000" fill="#ffffff"></rect><g transform="matrix(3.225806451612903,0,0,3.225806451612903,158.06451612903226,50)"><svg xmlns="http://www.w3.org/2000/svg" width="212" height="279" viewBox="0 0 212 279" fill="none"><path d="M50.0059 0.346189C90.7439 -1.32381 143.826 1.8742 171.322 36.5632C182.461 50.5932 187.402 68.5562 185.007 86.3102C182.557 105.681 173.05 120.108 157.958 131.948C170.069 134.004 181.371 139.387 190.601 147.494C202.797 158.195 210.159 173.365 211.019 189.567C213.256 226.226 185.755 252.185 150.554 255.481C146.821 255.83 143.117 256.022 139.373 256.207C136.442 256.324 134.676 256.082 131.791 255.775C162.211 252.507 191.594 234.378 194.62 201.521C196.05 187.057 191.513 172.636 182.06 161.596C169.197 146.374 151.581 138.916 132.036 137.248C133.895 136.425 135.737 135.589 137.519 134.607C151.707 126.769 162.236 113.656 166.824 98.1102C170.918 83.7352 169.206 68.3272 162.055 55.2022C146.016 26.3822 105.207 14.0752 75.1119 6.13818C66.8829 3.96718 58.2689 2.68419 50.0059 0.346189Z" fill="#030303"></path><path d="M64.8498 43.2246L64.9117 44.0656C58.2417 56.1956 53.9218 65.6666 50.9388 79.1646C49.5738 85.6126 48.5457 92.1266 47.8587 98.6806C46.7507 109.415 46.8007 128.312 40.6997 136.44C32.2747 147.368 20.2307 154.817 9.93175 163.821C-0.354255 172.815 14.9248 177.463 18.0538 182.42C28.7828 199.411 6.53878 195.461 25.7898 212.055C23.0708 213.873 21.3127 214.923 19.4657 217.592C18.6257 222.361 21.7897 223.742 23.9787 228.211C26.9717 234.036 21.7737 240.362 20.5317 245.937C16.9707 264.611 36.8847 261.025 48.4367 260.547C68.7047 259.708 101.78 249.319 114.607 270.575C115.709 272.402 117.936 276.754 117.447 278.698L116.167 276.78C114.839 274.599 112.697 271.875 110.632 270.231C91.8288 257.19 64.3797 267.114 42.6227 267.705C28.5987 268.086 12.7698 267.477 14.1498 247.979C14.4338 243.977 19.9787 235.723 18.7887 232.184C15.3387 221.918 7.92176 221.812 18.4938 212.322C17.4958 211.558 16.5078 210.781 15.5298 209.991C5.79777 201.975 16.7188 198.515 15.3448 189.864C13.9858 181.311 0.773778 180.177 0.0397777 170.503C-0.614222 161.88 6.93072 157.935 12.7687 153.169C21.3427 146.168 31.0168 140.057 37.2018 130.639C41.1528 124.322 41.9067 110.328 42.9217 102.812C45.5797 83.1236 52.0188 58.8726 64.8498 43.2246Z" fill="#030303"></path></svg></g></g><defs><clipPath id="SvgjsClipPath1022"><rect width="1000" height="1000" x="0" y="0" rx="350" ry="350"></rect></clipPath></defs></svg>